# xmcd
#
# Track frame offsets: 
#        150
#        19219
#        33446
#        47815
#        56373
#        65938
#        75090
#        80052
#        87946
#        96747
#        104500
#        117157
#        129456
#        140675
#        149558
#        160852
#
# Disc length: 2272 seconds
#
# Revision: 0
# Processed by: cddbd v1.5.2PL0 Copyright (c) Steve Scherf et al.
# Submitted via: ExactAudioCopyFreeDBPlugin 1.0
#
DISCID=e508de10
DTITLE=Maria Bethânia - Abraçar e agradecer
DYEAR=2016
DGENRE=Brasil
TTITLE0=Eterno em mim
TTITLE1=Dona do dom
TTITLE2=Gita
TTITLE3=A tua presença morena
TTITLE4=Nossos momentos
TTITLE5=Começaria tudo outra vez
TTITLE6=Voz de mágoa
TTITLE7=Gostoso demais
TTITLE8=Bela mocidade
TTITLE9=Alegria
TTITLE10=Você não sabe
TTITLE11=Dindi
TTITLE12=Tatuagem
TTITLE13=Meu amor é marinheiro
TTITLE14=Todos os lugares
TTITLE15=Rosa dos ventos
EXTD=
EXTT0=
EXTT1=
EXTT2=
EXTT3=
EXTT4=
EXTT5=
EXTT6=
EXTT7=
EXTT8=
EXTT9=
EXTT10=
EXTT11=
EXTT12=
EXTT13=
EXTT14=
EXTT15=
PLAYORDER=
